<!--?xml version="1.0" standalone="no"?-->
              <svg id="sw-js-blob-svg" viewBox="0 0 100 100" xmlns="http://www.w3.org/2000/svg" version="1.1">
                    <defs> 
                        <linearGradient id="sw-gradient" x1="0" x2="1" y1="1" y2="0">
                            <stop id="stop1" stop-color="rgba(248, 117, 55, 1)" offset="0%"></stop>
                            <stop id="stop2" stop-color="rgba(251, 168, 31, 1)" offset="100%"></stop>
                        </linearGradient>
                    </defs>
                <path fill="none" d="M21.5,-28C26.9,-21.1,29.5,-13.4,31.5,-5.1C33.6,3.2,34.9,12.1,31.2,17.6C27.6,23.2,18.8,25.4,10.2,28.9C1.7,32.3,-6.7,37,-13.2,35.1C-19.6,33.3,-24.1,24.9,-29.5,16.6C-35,8.2,-41.3,-0.1,-40.8,-8C-40.3,-15.8,-33.1,-23.3,-25.1,-29.7C-17.2,-36.1,-8.6,-41.5,-0.3,-41.2C8.1,-40.9,16.1,-34.9,21.5,-28Z" width="100%" height="100%" transform="translate(50 50)" style="transition: all 0.3s ease 0s;" stroke-width="1" stroke="url(#sw-gradient)"></path>
              </svg>