<!--?xml version="1.0" standalone="no"?-->
              <svg id="sw-js-blob-svg" viewBox="0 0 100 100" xmlns="http://www.w3.org/2000/svg" version="1.1">
                    <defs> 
                        <linearGradient id="sw-gradient" x1="0" x2="1" y1="1" y2="0">
                            <stop id="stop1" stop-color="rgba(231, 221, 225, 1)" offset="0%"></stop>
                            <stop id="stop2" stop-color="rgba(211, 177, 197, 1)" offset="100%"></stop>
                        </linearGradient>
                    </defs>
                <path fill="none" d="M25.4,-34.9C32.9,-29.4,39.1,-22.1,39.7,-14.3C40.3,-6.5,35.3,1.7,31.6,9.4C27.9,17.2,25.6,24.6,20.5,31C15.5,37.5,7.7,43.1,0,43C-7.7,43,-15.3,37.3,-20.3,30.8C-25.3,24.3,-27.6,17,-29.2,10C-30.8,3,-31.6,-3.8,-30.6,-10.9C-29.6,-18,-26.7,-25.4,-21.3,-31.6C-15.9,-37.7,-8,-42.6,0.5,-43.3C8.9,-44,17.8,-40.4,25.4,-34.9Z" width="100%" height="100%" transform="translate(50 50)" style="transition: all 0.3s ease 0s;" stroke-width="1" stroke="url(#sw-gradient)"></path>
              </svg>