<!--?xml version="1.0" standalone="no"?-->
              <svg id="sw-js-blob-svg" viewBox="0 0 100 100" xmlns="http://www.w3.org/2000/svg" version="1.1">
                    <defs> 
                        <linearGradient id="sw-gradient" x1="0" x2="1" y1="1" y2="0">
                            <stop id="stop1" stop-color="rgba(231, 221, 225, 1)" offset="0%"></stop>
                            <stop id="stop2" stop-color="rgba(211, 177, 197, 1)" offset="100%"></stop>
                        </linearGradient>
                    </defs>
                <path fill="none" d="M19.3,-27.2C25,-22.4,29.6,-16.8,33.5,-9.8C37.3,-2.7,40.2,5.6,38.9,13.6C37.6,21.5,32,28.9,24.8,33.9C17.6,38.9,8.8,41.5,1.5,39.4C-5.8,37.4,-11.6,30.7,-17.4,25.2C-23.2,19.7,-28.9,15.5,-31.7,9.7C-34.5,3.8,-34.3,-3.6,-31.4,-9.5C-28.5,-15.3,-22.9,-19.5,-17.2,-24.4C-11.5,-29.2,-5.8,-34.6,0.5,-35.3C6.8,-36,13.6,-32,19.3,-27.2Z" width="100%" height="100%" transform="translate(50 50)" style="transition: all 0.3s ease 0s;" stroke-width="1" stroke="url(#sw-gradient)"></path>
              </svg>