<!--?xml version="1.0" standalone="no"?-->
              <svg id="sw-js-blob-svg" viewBox="0 0 100 100" xmlns="http://www.w3.org/2000/svg" version="1.1">
                    <defs> 
                        <linearGradient id="sw-gradient" x1="0" x2="1" y1="1" y2="0">
                            <stop id="stop1" stop-color="rgba(231, 221, 225, 1)" offset="0%"></stop>
                            <stop id="stop2" stop-color="rgba(211, 177, 197, 1)" offset="100%"></stop>
                        </linearGradient>
                    </defs>
                <path fill="none" d="M26.2,-35.6C34.1,-30.4,40.6,-22.8,41.8,-14.7C43,-6.5,38.8,2.4,35.4,11C31.9,19.6,29.2,28,23.4,33.7C17.6,39.3,8.8,42.3,0,42.2C-8.7,42.2,-17.5,39.2,-24.1,33.8C-30.7,28.4,-35.1,20.6,-36.4,12.8C-37.6,4.9,-35.6,-3,-32.8,-10.3C-29.9,-17.6,-26.1,-24.2,-20.5,-30.1C-14.9,-36.1,-7.5,-41.4,0.9,-42.6C9.2,-43.8,18.4,-40.8,26.2,-35.6Z" width="100%" height="100%" transform="translate(50 50)" style="transition: all 0.3s ease 0s;" stroke-width="1" stroke="url(#sw-gradient)"></path>
              </svg>