<svg id="Layer_1" data-name="Layer 1" xmlns="http://www.w3.org/2000/svg" xmlns:xlink="http://www.w3.org/1999/xlink" viewBox="0 0 537.16 471.42">
  <defs>
    <style>
      .cls-1, .cls-27 {
        fill: none;
      }

      .cls-2 {
        fill: #fed190;
      }

      .cls-3 {
        fill: #efbd7d;
      }

      .cls-4 {
        fill: #6c9191;
      }

      .cls-5 {
        fill: #e4f9ff;
      }

      .cls-6 {
        clip-path: url(#clip-path);
      }

      .cls-7 {
        fill: #071419;
      }

      .cls-8 {
        fill: #ffcfb6;
      }

      .cls-9 {
        fill: #ffada5;
      }

      .cls-10 {
        fill: #95389e;
      }

      .cls-11 {
        fill: #512b58;
      }

      .cls-12 {
        fill: #0e1f28;
      }

      .cls-13 {
        fill: #fff;
      }

      .cls-14 {
        fill: #0b0b0d;
      }

      .cls-15 {
        fill: #dae1e7;
      }

      .cls-16 {
        fill: #929aab;
      }

      .cls-17 {
        fill: #ffbc36;
      }

      .cls-18 {
        fill: #f0a500;
      }

      .cls-19 {
        fill: #634708;
      }

      .cls-20 {
        opacity: 0.5;
      }

      .cls-21 {
        fill: #422e14;
      }

      .cls-22 {
        fill: #43d8c9;
      }

      .cls-23 {
        fill: #93deff;
      }

      .cls-24 {
        fill: #75bfd8;
      }

      .cls-25 {
        fill: #03051e;
      }

      .cls-26 {
        fill: #b0bac1;
      }

      .cls-27 {
        stroke: #ffada5;
        stroke-miterlimit: 10;
      }

      .cls-28 {
        fill: #21190b;
      }

      .cls-29 {
        fill: #f7931e;
      }

      .cls-30 {
        fill: #4d3706;
      }

      .cls-31 {
        fill: #ffd933;
      }

      .cls-32 {
        fill: #e8c223;
      }

      .cls-33 {
        fill: #792884;
      }

      .cls-34 {
        fill: #2dad9d;
      }
    </style>
    <clipPath id="clip-path" transform="translate(-131.42 -69.45)">
      <rect class="cls-1" x="156.22" y="77.45" width="351.74" height="255.84"/>
    </clipPath>
  </defs>
  <g>
    <g>
      <g>
        <rect class="cls-2" x="314.86" y="278.43" width="12.54" height="60.34"/>
        <rect class="cls-3" x="314.86" y="278.43" width="12.54" height="17.9"/>
      </g>
      <g>
        <rect class="cls-2" x="73.96" y="278.43" width="12.54" height="60.34"/>
        <rect class="cls-3" x="73.96" y="278.43" width="12.54" height="17.9"/>
      </g>
      <rect class="cls-4" x="16.8" width="367.74" height="271.84"/>
      <rect class="cls-5" x="24.8" y="8" width="351.74" height="255.84"/>
      <g class="cls-6">
        <g>
          <path class="cls-7" d="M398.68,256.33s-24,10.18-36.1,26.9S341.9,392.51,341.9,392.51s14.56,1.43,40.28,15.72,44,18.92,72.17,12.74,26-51.21,45.72-57.15c0,0-15-28.74-32.17-51.88S421,270.79,421,270.79Z" transform="translate(-131.42 -69.45)"/>
          <g>
            <path class="cls-8" d="M435.23,213.64a18.78,18.78,0,0,0,5.62,8.85c4.18,3.36-4.5,6.58-4.5,6.58Z" transform="translate(-131.42 -69.45)"/>
            <g>
              <path class="cls-9" d="M462.83,370.34l-49.74,8.54s10,26.63,32.35,29.35,81.51-2,81.51-2l23.57-22.72C545.62,375.35,462.83,370.34,462.83,370.34Z" transform="translate(-131.42 -69.45)"/>
              <path class="cls-9" d="M550.52,383.51,520.69,397s-9.76,19.73-9.92,40.6-3.13,65.26-3.13,65.26L525,505S552.49,393.31,550.52,383.51Z" transform="translate(-131.42 -69.45)"/>
            </g>
            <path class="cls-8" d="M405.27,229.93l-8.36,33.46,24.43,14.29s-1.93-29,1.93-35.53Z" transform="translate(-131.42 -69.45)"/>
            <path class="cls-8" d="M405.27,229.93l-4.37,17.48c7.22,3.17,15,3.72,20.39,3.59.36-3.87,1-7.14,2-8.85Z" transform="translate(-131.42 -69.45)"/>
            <path class="cls-9" d="M397.7,260.24s-23.93,17.63-12.36,44.84,29.27,78.15,29.27,78.15l48.22-12.89s-4.24-19.6-6.81-37.66c-.86-6,7.71-21.21.64-27.44-21.72-19.12-35.54-31.68-35.54-31.68Z" transform="translate(-131.42 -69.45)"/>
            <path class="cls-8" d="M413.09,378.88s10,26.63,32.35,29.35,81.51-2,81.51-2-2.57,21.85,4.28,41.57S551,510.14,551,510.14l16.28-3.63s-11.57-114.43-16.71-123c-4.9-8.16-87.69-13.17-87.69-13.17Z" transform="translate(-131.42 -69.45)"/>
            <path class="cls-9" d="M556.73,416.27,526.66,423a92.48,92.48,0,0,0,4.57,24.83c1.38,3.95,3,8.81,4.69,14.07,10.57-4.12,19.26-8.07,25.21-10.93C559.73,439.1,558.22,427,556.73,416.27Z" transform="translate(-131.42 -69.45)"/>
            <path class="cls-10" d="M462.83,370.34s78.36,5.46,87.79,9.74,19.28,66.43,19.28,66.43-32.76,7.29-65.44,7.29V410.9s-56.11.58-66.69-1.83-23.16-25.84-23.16-25.84Z" transform="translate(-131.42 -69.45)"/>
            <path class="cls-11" d="M437.77,409.07c10.58,2.41,66.69,1.83,66.69,1.83v42.9A296.76,296.76,0,0,0,540,451.43c-4.07-12.7-11.66-37.5-10.38-42.36,1.75-6.59,8.88-9.67,8.88-9.67s-82.62,9.4-98,4.26-25.87-20.43-25.87-20.43S427.19,406.66,437.77,409.07Z" transform="translate(-131.42 -69.45)"/>
            <path class="cls-8" d="M393.81,202.22c7.15-13.06,26.71-17.53,36.87-5.58s8.46,49.84.88,51.85-28.21-2.27-34.8-17.84S390.38,208.49,393.81,202.22Z" transform="translate(-131.42 -69.45)"/>
            <g>
              <path class="cls-8" d="M567.23,506.51s6,7.43,11.89,13.72,20.64,15,18.71,17.57-44.21-8.36-49.57-13.07c-2.31-2,1.59-18.22,1.59-18.22Z" transform="translate(-131.42 -69.45)"/>
              <path class="cls-12" d="M549,510.4l18.23,7.9s-2.22-7.75,3-8.16c0,0,14.24,12.23,21.74,16.09s6,12.62,6,12.62-30.67-4.05-51.67-13.48C546.33,525.37,545.48,520,549,510.4Z" transform="translate(-131.42 -69.45)"/>
              <path class="cls-13" d="M592,526.23c-1.12-.58-2.39-1.34-3.74-2.22-4.45,2.72-5.91,8.65-5.91,8.65a281.3,281.3,0,0,1-36-10.68,16.9,16.9,0,0,0,0,3.39c21,9.43,51.67,13.48,51.67,13.48S599.48,530.08,592,526.23Z" transform="translate(-131.42 -69.45)"/>
            </g>
            <g>
              <path class="cls-9" d="M524.89,505S530,513.09,535,520.05s18.65,17.42,16.43,19.73-42.86-13.71-47.6-19c-2-2.3,3.81-17.89,3.81-17.89Z" transform="translate(-131.42 -69.45)"/>
              <path class="cls-12" d="M506.32,506.61l17.13,10.07s-1.26-8,4-7.73c0,0,12.63,13.88,19.6,18.63s4.44,13.27,4.44,13.27-30-7.78-49.63-19.71C501.84,521.14,501.64,515.72,506.32,506.61Z" transform="translate(-131.42 -69.45)"/>
              <path class="cls-13" d="M547,527.58a41.62,41.62,0,0,1-3.43-2.66c-4.76,2.15-6.93,7.86-6.93,7.86a280.07,280.07,0,0,1-34.44-15,16.57,16.57,0,0,0-.39,3.37c19.68,11.93,49.63,19.71,49.63,19.71S554,532.33,547,527.58Z" transform="translate(-131.42 -69.45)"/>
            </g>
            <rect class="cls-14" x="479.93" y="279.09" width="55.42" height="4.4" rx="2.2" transform="translate(-181.64 371.89) rotate(-45)"/>
            <path class="cls-8" d="M520.35,272.11s-.33-1-2.49-.23S502,288,502,288l-7.11,4.07s6.54-8.19,7.87-11.73a6.69,6.69,0,0,0-.5-6l-5.94,6s-8.07,7.08-9.14,9.46-2.92,15.39-2.92,15.39L494.48,312s19.66-11.49,20.29-14,3.14-9.52,3.14-9.52,1.33-3.95,1.8-5.72-.56-7.51-.56-7.51Z" transform="translate(-131.42 -69.45)"/>
            <path class="cls-8" d="M398.49,277.52s13.84,6.17,24.78,27.69,19.47,36.94,19.47,36.94l41.53-36.94,14.29,4.37s-36.92,61-59.95,64.92c0,0-23.58-15.76-46.59-57.2C392,317.3,391.65,293.35,398.49,277.52Z" transform="translate(-131.42 -69.45)"/>
          </g>
          <g>
            <path class="cls-15" d="M460.1,500.54c-9.64-17.61-9-92.31-9-92.31H434.37s.65,74.7-9,92.31S381,530.61,381,538.85H504.46C504.46,530.61,469.75,518.15,460.1,500.54Z" transform="translate(-131.42 -69.45)"/>
            <path class="cls-16" d="M460.1,500.54c-9.64-17.61-9-92.31-9-92.31h-4.17c-.37,22.9-.64,83.43,6.62,97.43,5.08,9.8,13.45,23.3,19.77,33.19h31.14C504.46,530.61,469.75,518.15,460.1,500.54Z" transform="translate(-131.42 -69.45)"/>
            <path class="cls-17" d="M369.93,277.92C341,301.07,358.79,431.73,403.25,431.73h97.14c27.36,0,34.21-53.5,26-63.93s-74.88,4.69-88.56-11.38C423.42,339.49,400.55,253.42,369.93,277.92Z" transform="translate(-131.42 -69.45)"/>
            <path class="cls-18" d="M521,417.65c-9.68,5.84-69.39,9.58-93.82-5s-47.57-131.36-58.31-131.36l-2.58.41c-23.63,30.92-5.5,150,36.95,150h97.14C509.44,431.73,516.25,425.86,521,417.65Z" transform="translate(-131.42 -69.45)"/>
          </g>
          <path class="cls-12" d="M438.61,423.38c21.72-2.54,13-39.23,18.13-59.82s14.76-47,14.76-47c-1.24-1.54-2.45-3.08-3.6-4.63C450.76,288.8,421,270.79,421,270.79l-22.33-14.46s-24,10.18-36.1,26.9S341.9,392.51,341.9,392.51s14.17,2.14,40.28,15.72C414.61,425.08,438.61,423.38,438.61,423.38Z" transform="translate(-131.42 -69.45)"/>
          <path class="cls-7" d="M469.6,314.17c-9.83,11.93-26.14,33-31,47.06-7.11,20.57-8,47-8,47-21.92-16.43-16-79.15-16-79.15-10.95,22.71-13.77,76.29-13.77,76.29-6.73-3.43-32.27-69.43-28.95-100.29,2.48-23,19.14-40.77,27.45-48.32l-.66-.43s-24,10.18-36.1,26.9S341.9,392.51,341.9,392.51s14.17,2.14,40.28,15.72c32.43,16.85,56.43,15.15,56.43,15.15,21.72-2.54,13-39.23,18.13-59.82s14.76-47,14.76-47C470.85,315.77,470.22,315,469.6,314.17Z" transform="translate(-131.42 -69.45)"/>
          <path class="cls-19" d="M437.77,195.14c1.61,6.31-21.93,18-21.93,18s-2.84,14.51-8.64,20.92c0,0,4.45,19.33-2.92,25.07s-15.72,4.73-25,14.4S366,298.66,366,298.66s-16-15.09-14.7-30.53,16-25.63,22.7-37c6.48-11.07,1.47-35.29,11.11-44.13S436.16,188.82,437.77,195.14Z" transform="translate(-131.42 -69.45)"/>
          <path class="cls-8" d="M412.4,225.85s-6.1-14.14-10.6-7.47,8.29,17.92,8.29,17.92Z" transform="translate(-131.42 -69.45)"/>
        </g>
      </g>
      <rect class="cls-2" y="271.84" width="401.35" height="15.21"/>
      <g class="cls-20">
        <polygon class="cls-13" points="177.45 8 131.9 263.84 138.63 263.84 184.17 8 177.45 8"/>
        <polygon class="cls-13" points="190.39 8 144.84 263.84 160.07 263.84 205.62 8 190.39 8"/>
        <polygon class="cls-13" points="292.45 8 246.91 263.84 262.13 263.84 307.68 8 292.45 8"/>
      </g>
    </g>
    <g>
      <path class="cls-21" d="M256.88,158.4s-4.17,12.55,3.53,21.09-2.54,13,5.27,19.92,6.66,14.36-18.26,14.82-16.53-17.63-15.7-39.81,7.55-27.55,18.11-23.81S256.88,158.4,256.88,158.4Z" transform="translate(-131.42 -69.45)"/>
      <path class="cls-8" d="M251.11,198.8s9.58,3,18.84,19.44,18.46,40.09,18.46,40.09,1.54,29.25-7.69,29.57-36.6-51.24-36.6-51.24S239,210.72,251.11,198.8Z" transform="translate(-131.42 -69.45)"/>
      <path class="cls-22" d="M245.58,194.35s14.54,3.16,37.74,38.75c0,0-13,30.07-29.13,37,0,0-13.65-22.9-13-42.9S245.58,194.35,245.58,194.35Z" transform="translate(-131.42 -69.45)"/>
      <path class="cls-8" d="M220.56,289.26s-3.29,11.29,1.16,42.84,18,61.77,15.06,73.34-8.41,44,6.27,111.05h17.48s3.6-79.8,6.66-124-2-102.48-2-102.48Z" transform="translate(-131.42 -69.45)"/>
      <path class="cls-8" d="M205.55,289.26s-8,11.29-9.06,42.84,7.77,61.77,2.84,73.34-11.36,44-8.41,111.05h17.67s14.73-79.8,25.53-124S250.05,290,250.05,290Z" transform="translate(-131.42 -69.45)"/>
      <path class="cls-23" d="M264.91,287.27s4.5,69.71,8,167.52c0,0-22.65,19.89-63.3,1.91,0,0-1.84-117.81,8-171.93Z" transform="translate(-131.42 -69.45)"/>
      <path class="cls-24" d="M251.11,298.08l2.54-8.29-33.09-.53c-9.36,15.61-7.6,49.58-7.6,49.58a216.19,216.19,0,0,0,44.22,1.7Z" transform="translate(-131.42 -69.45)"/>
      <path class="cls-23" d="M205.55,289.26s-24.29,50.41-17.85,163.1c0,0,27.6,15.42,61.32,15.42,0,0,1.35-93.94,3.5-168.24Z" transform="translate(-131.42 -69.45)"/>
      <path class="cls-9" d="M312.06,219.05s5.28-14,7-15.63,13.92-2.83,13.92-2.83,2.21,2.73.18,4.7a3.71,3.71,0,0,1-.41,5.06s0,3.4-2.22,4.71c0,0-.47,3.33-1.62,4.2s-1.61,5.48-7.22,7.07Z" transform="translate(-131.42 -69.45)"/>
      <g>
        <rect class="cls-25" x="297.92" y="197.3" width="54.53" height="2.02" rx="1.01" transform="translate(-19.13 444.69) rotate(-87.39)"/>
        <path class="cls-25" d="M326.57,196l0-.56,6,.27a.32.32,0,0,0,.34-.31h0a.33.33,0,0,0-.31-.35l-6-.27,0-.56,6,.27a.32.32,0,0,0,.34-.31h0a.32.32,0,0,0-.31-.34l-6-.28,0-.56,6,.28A.35.35,0,0,0,333,193h0a.34.34,0,0,0-.32-.34l-6-.27,0-.56,6,.27a.32.32,0,0,0,.34-.31h0a.33.33,0,0,0-.31-.35l-6-.27,0-.56,6,.27a.33.33,0,0,0,.35-.31h0a.34.34,0,0,0-.32-.34l-6-.28,0-.56,6,.28a.34.34,0,0,0,.34-.32h0a.32.32,0,0,0-.31-.34l-6-.27,0-.56,6,.27a.33.33,0,0,0,.35-.31h0a.33.33,0,0,0-.32-.35l-6-.27,0-.56,6,.27a.32.32,0,0,0,.34-.31h0a.32.32,0,0,0-.31-.34l-6-.27,0-.57,6,.28a.33.33,0,0,0,.34-.32h0a.32.32,0,0,0-.31-.34l-6-.27,0-.56,6,.27a.32.32,0,0,0,.34-.31h0a.33.33,0,0,0-.31-.35l-6-.27,0-.56,6,.27a.32.32,0,0,0,.34-.31h0a.32.32,0,0,0-.31-.34l-6-.27,0-.56,6,.27a.32.32,0,0,0,.34-.31h0a.32.32,0,0,0-.31-.34l-6-.27,0-.56,6,.27a.32.32,0,0,0,.34-.31h0a.33.33,0,0,0-.31-.35l-6-.27,0-.56,6,.27a.32.32,0,0,0,.34-.31h0a.32.32,0,0,0-.31-.34l-6-.27,0-.56,6,.27a.32.32,0,0,0,.34-.31h0a.32.32,0,0,0-.31-.34l-6-.27,0-.56,6,.27a.33.33,0,0,0,.35-.31h0a.33.33,0,0,0-.32-.34l-6-.28,0-.56,6,.28a.34.34,0,0,0,.34-.32h0a.32.32,0,0,0-.31-.34l-6-.27,0-.56,6,.27a.33.33,0,0,0,.35-.31h0a.34.34,0,0,0-.32-.34l-6-.27,0-.56,6,.27a.32.32,0,0,0,.34-.31h0a.32.32,0,0,0-.31-.34l-6-.28,0-.56,6,.28a.34.34,0,0,0,.35-.32h0a.33.33,0,0,0-.32-.34l-6-.27,0-.56,6,.27a.32.32,0,0,0,.34-.31h0a.33.33,0,0,0-.31-.35l-6-.27,0-.56,6,.27a.32.32,0,0,0,.34-.31h0a.32.32,0,0,0-.31-.34l-6-.28,0-.56,6,.28a.33.33,0,0,0,.34-.32h0a.32.32,0,0,0-.31-.34l-6-.27,0-.56,6,.27a.32.32,0,0,0,.34-.31h0a.33.33,0,0,0-.31-.35l-6-.27,0-.56,6,.27a.32.32,0,0,0,.34-.31h0a.32.32,0,0,0-.31-.34l-6-.28,0-.56,6,.28a.33.33,0,0,0,.34-.32h0a.32.32,0,0,0-.31-.34l-6-.27,0-.56,6,.27a.32.32,0,0,0,.34-.31h0a.33.33,0,0,0-.31-.35l-6-.27,0-.56,6,.27a.32.32,0,0,0,.34-.31h0a1,1,0,0,0-.91-1l-5.13-.24a2.52,2.52,0,0,0-2.62,2.39l-1.52,33.46,7.63.35a1,1,0,0,0,1-.91h0a.32.32,0,0,0-.31-.34Z" transform="translate(-131.42 -69.45)"/>
      </g>
      <path class="cls-8" d="M330.49,215.06c3-1.06,2.22-4.71,2.22-4.71,3.54-2.5.41-5.06.41-5.06,2.85-1.9-.18-4.7-.18-4.7L324,202a2.8,2.8,0,0,0,1.67,3.67s-4,1.59-1.06,4.29c0,0-3.67,1.93-1.06,3.85,0,0-3.52,1.46-1.4,4.17l6.71,1.29.41-.3C330.43,217.84,330.49,215.06,330.49,215.06Z" transform="translate(-131.42 -69.45)"/>
      <path class="cls-8" d="M312.06,219.05s2.78-8.2,4.19-10.34c.73-1.1,10.39-5.88,10.39-5.88a3.15,3.15,0,0,1,.87,3.55c-.79,2.28-5.86,6.14-5.86,6.14s2.39,7.62-2.42,12Z" transform="translate(-131.42 -69.45)"/>
      <path class="cls-22" d="M213.2,189.9s-22.27,5.52-23.15,23.76,10.71,45.41,15.5,75.6c0,0,42.93,15,60.11.72,0,0,1.27-24.85,5.25-42.59s-5.56-21.37-12.08-35.17-9.07-16.24-17.14-19.73Z" transform="translate(-131.42 -69.45)"/>
      <g>
        <path class="cls-15" d="M283.23,206.72h0a2.61,2.61,0,0,1-1.13,2.91l-19.42,11a1.71,1.71,0,0,1-1.76-.06,1.68,1.68,0,0,0-1.47-.33c-1.5.68-2.68,1.07-2.68,1.07l-.86-1.86Z" transform="translate(-131.42 -69.45)"/>
        <path class="cls-26" d="M262.44,220.74h0l2.67-5.58-9.2,4.3.86,1.86s1.18-.39,2.68-1.07a1.68,1.68,0,0,1,1.47.33A1.74,1.74,0,0,0,262.44,220.74Z" transform="translate(-131.42 -69.45)"/>
        <path class="cls-15" d="M272.26,195.76h0a2.57,2.57,0,0,0-2.9,1.12l-11,19.42a1.71,1.71,0,0,0,.06,1.76,1.69,1.69,0,0,1,.34,1.47,26.8,26.8,0,0,0-1.07,2.68l1.86.86Z" transform="translate(-131.42 -69.45)"/>
        <path class="cls-25" d="M260.78,218.2a.81.81,0,0,0-1.12,0,.79.79,0,1,0,1.12,0Z" transform="translate(-131.42 -69.45)"/>
        <path class="cls-25" d="M259.37,227.76v0a2.9,2.9,0,0,1-.47-.59,1.78,1.78,0,0,1-.06-1.62l1.09-2.44-2.58-1.21-1.53,3.38a1.77,1.77,0,0,1-1.26,1h0a6.12,6.12,0,0,0-3.27,1.71,5.85,5.85,0,0,0-1,7.14,2,2,0,0,1,0,2,8.06,8.06,0,0,0-1.11,4,1.85,1.85,0,0,0,1.76-1.4,6.48,6.48,0,0,1,.4-1.15,2,2,0,0,1,2.24-1.09,6,6,0,0,0,5.56-1.65A5.74,5.74,0,0,0,259.37,227.76ZM252.14,235a4.33,4.33,0,1,1,5.87-.24A4.17,4.17,0,0,1,252.14,235Z" transform="translate(-131.42 -69.45)"/>
        <g>
          <path class="cls-25" d="M247.94,228.55s1.54,1.4,2.09,1.08c.74-.42.46-2.4.46-2.4A7.16,7.16,0,0,1,247.94,228.55Z" transform="translate(-131.42 -69.45)"/>
          <path class="cls-25" d="M255.83,219l-2.33,1a2,2,0,0,1-2-.21c-.11-.09-.22-.18-.32-.28l0,0a5.92,5.92,0,1,0-.24,8.1,6.07,6.07,0,0,0,1.7-3.17h0a1.92,1.92,0,0,1,1.13-1.36l3.32-1.5Zm-11.93,7.76a4.34,4.34,0,1,1,5.87-.24A4.16,4.16,0,0,1,243.9,226.75Z" transform="translate(-131.42 -69.45)"/>
        </g>
      </g>
      <path class="cls-12" d="M165.21,231.51s20.14,48,31.71,30.73c0,0,2.39-14.45-4.59-23S165.21,231.51,165.21,231.51Z" transform="translate(-131.42 -69.45)"/>
      <path class="cls-8" d="M195,201.9s9.68,8.07,8.62,25.33-27.69,54.54-32,56-14.4-13-6.13-32.33S184.88,206.87,195,201.9Z" transform="translate(-131.42 -69.45)"/>
      <path class="cls-8" d="M312.06,219.05S282.88,246,279.11,258.33s1.61,29.57,1.61,29.57,7.79,1.36,16.86-14.3c6.15-10.62,24.07-47.27,24.07-47.27Z" transform="translate(-131.42 -69.45)"/>
      <g>
        <path class="cls-8" d="M260.53,516.49s6.85,5.55,14,10.39,23.45,10,22.14,13c0,0-45,1.66-51.23-1.75-2.7-1.47-2.35-21.62-2.35-21.62Z" transform="translate(-131.42 -69.45)"/>
        <path class="cls-12" d="M242.94,524l19.53,3.66s-3.88-7.06,1.13-8.62c0,0,16.59,8.77,24.76,10.87s8.67,11,8.67,11-29.4-1.69-53.37-1.69C243.66,539.16,241.64,534.13,242.94,524Z" transform="translate(-131.42 -69.45)"/>
        <path class="cls-12" d="M288.36,529.88c-1.22-.32-2.63-.78-4.14-1.34-3.74,3.64-3.84,9.74-3.84,9.74a279.49,279.49,0,0,1-37.5-2.42c.34,2.2.78,5,.78,5H297S296.52,532,288.36,529.88Z" transform="translate(-131.42 -69.45)"/>
      </g>
      <path class="cls-8" d="M208.59,516.49s.33,4,1.19,5.73c1.85,3.8,7.28,6.29,7.28,18H186.21s-2.58-11.29,4.71-23.77Z" transform="translate(-131.42 -69.45)"/>
      <path class="cls-12" d="M178.28,528.54" transform="translate(-131.42 -69.45)"/>
      <path class="cls-12" d="M284.22,528.54" transform="translate(-131.42 -69.45)"/>
      <path class="cls-12" d="M211.06,528.63s-3.22-9.62-9.65-9.62-11.24,9.07-11.24,9.07l-3.11-2.42a32.79,32.79,0,0,0-.85,14.6h30.85c0-9.65-3.66-13-6-16.06Z" transform="translate(-131.42 -69.45)"/>
      <path class="cls-8" d="M195,201.9c-9.56,4.71-20,27.17-28.14,46,10-2.17,18.55,3,24.68,8.88,6.25-10.56,11.61-22,12.08-29.52C204.65,210,195,201.9,195,201.9Z" transform="translate(-131.42 -69.45)"/>
      <path class="cls-12" d="M216.94,537.44h-2.73c-2.06-4.05-5.73-8.9-11.51-8.9-5.53,0-9.2,4.73-11.36,8.9h-5.49a19.77,19.77,0,0,0,.36,2.82h30.85C217.06,539.25,217,538.32,216.94,537.44Z" transform="translate(-131.42 -69.45)"/>
      <path class="cls-22" d="M200.88,195.66a69.64,69.64,0,0,0-19.89,15,168.13,168.13,0,0,0-15.78,20.89s23.08,3.71,31.71,30.73c0,0,7.65-19.73,10-35S200.88,195.66,200.88,195.66Z" transform="translate(-131.42 -69.45)"/>
      <path class="cls-8" d="M226.74,231.39s10.3-6.5,12.63-8,19,4.53,19,4.53,1.78,3.51-1.72,4.15c0,0,1.36,3.59-2.46,4.1,0,0,.49,4.19-3.36,3.93,0,0-.63,2.16-3.92,2.73s-14.59-.08-14.59-.08Z" transform="translate(-131.42 -69.45)"/>
      <path class="cls-8" d="M226.74,231.39s-44.39,17.28-51.68,24.41-3.43,27.48-3.43,27.48a118.05,118.05,0,0,0,21-7.72c12.43-5.76,39.7-32.82,39.7-32.82Z" transform="translate(-131.42 -69.45)"/>
      <path class="cls-27" d="M183,250.45s-11.68,2-12.37,19.68" transform="translate(-131.42 -69.45)"/>
      <path class="cls-8" d="M223.62,155.25s-3.82,28.57-10.42,34.65c0,0,23.36,21.55,28.49,2.59a91.84,91.84,0,0,1,0-22.6Z" transform="translate(-131.42 -69.45)"/>
      <path class="cls-8" d="M228.28,121.34c11.21-9.79,31.12-7.24,36.53,7.48s-9.25,49.7-17.06,49-25.69-11.86-26.51-28.74S222.9,126,228.28,121.34Z" transform="translate(-131.42 -69.45)"/>
      <path class="cls-28" d="M236.63,126.06s6.54-9.36,15.11,4.44c4.66,7.49,6.07,18.63,18.47,14.69S287,136,280.83,131.71s.21-25-16.24-26.23-35,10-35,10S217.69,113,213.2,125.7s-1.57,12.1-15.13,20.65-8.88,22.35-9.35,30.38-19.19,18-7.73,33.89,36.74,13.69,42-16.62.81-42.05.81-42.05l3.05-6.67s4.6-1.61,5.26-8.64S232.29,121.85,236.63,126.06Z" transform="translate(-131.42 -69.45)"/>
      <path class="cls-8" d="M226.84,145.28s-5.22-13.12-7.11-5.33c-3,12.6,6.21,15.86,6.21,15.86Z" transform="translate(-131.42 -69.45)"/>
    </g>
    <g>
      <path class="cls-7" d="M335.89,256.33s-24,10.18-36.1,26.9-20.68,109.28-20.68,109.28,14.56,1.43,40.28,15.72,44,18.92,72.17,12.74,26-51.21,45.72-57.15c0,0-15-28.74-32.17-51.88s-46.89-41.15-46.89-41.15Z" transform="translate(-131.42 -69.45)"/>
      <g>
        <path class="cls-8" d="M372.44,213.64a18.78,18.78,0,0,0,5.62,8.85c4.18,3.36-4.5,6.58-4.5,6.58Z" transform="translate(-131.42 -69.45)"/>
        <g>
          <path class="cls-9" d="M400,370.34l-49.74,8.54s10,26.63,32.35,29.35,81.51-2,81.51-2l23.57-22.72C482.83,375.35,400,370.34,400,370.34Z" transform="translate(-131.42 -69.45)"/>
          <path class="cls-8" d="M487.73,383.51,457.9,397s-9.76,19.73-9.92,40.6-3.13,65.26-3.13,65.26L462.18,505S489.7,393.31,487.73,383.51Z" transform="translate(-131.42 -69.45)"/>
        </g>
        <path class="cls-8" d="M342.48,229.93l-8.36,33.46,24.43,14.29s-1.93-29,1.93-35.53Z" transform="translate(-131.42 -69.45)"/>
        <path class="cls-9" d="M334.91,260.24S311,277.87,322.55,305.08s29.27,78.15,29.27,78.15L400,370.34s-4.24-19.6-6.81-37.66c-.86-6,7.71-21.21.64-27.44-21.72-19.12-35.54-31.68-35.54-31.68Z" transform="translate(-131.42 -69.45)"/>
        <path class="cls-8" d="M350.3,378.88s10,26.63,32.35,29.35,81.51-2,81.51-2-2.57,21.85,4.28,41.57,19.72,62.34,19.72,62.34l16.28-3.63s-11.57-114.43-16.71-123c-4.9-8.16-87.69-13.17-87.69-13.17Z" transform="translate(-131.42 -69.45)"/>
        <path class="cls-9" d="M493.94,416.27,463.87,423a92.48,92.48,0,0,0,4.57,24.83c1.38,3.95,3,8.81,4.69,14.07,10.57-4.12,19.26-8.07,25.21-10.93C496.94,439.1,495.43,427,493.94,416.27Z" transform="translate(-131.42 -69.45)"/>
        <path class="cls-10" d="M400,370.34s78.36,5.46,87.79,9.74,19.28,66.43,19.28,66.43-32.76,7.29-65.44,7.29V410.9s-56.11.58-66.69-1.83-23.16-25.84-23.16-25.84Z" transform="translate(-131.42 -69.45)"/>
        <path class="cls-8" d="M331,202.22c7.15-13.06,26.71-17.53,36.87-5.58s8.46,49.84.88,51.85-28.21-2.27-34.8-17.84S327.59,208.49,331,202.22Z" transform="translate(-131.42 -69.45)"/>
        <path class="cls-29" d="M363.27,215.57" transform="translate(-131.42 -69.45)"/>
        <path class="cls-29" d="M371.79,213.64" transform="translate(-131.42 -69.45)"/>
        <path class="cls-22" d="M371,215.57" transform="translate(-131.42 -69.45)"/>
        <path class="cls-22" d="M371,219" transform="translate(-131.42 -69.45)"/>
        <g>
          <path class="cls-8" d="M504.44,506.51s6,7.43,11.89,13.72S537,535.23,535,537.8s-44.21-8.36-49.57-13.07c-2.31-2,1.59-18.22,1.59-18.22Z" transform="translate(-131.42 -69.45)"/>
          <path class="cls-12" d="M486.21,510.4l18.23,7.9s-2.22-7.75,3-8.16c0,0,14.24,12.23,21.74,16.09s6,12.62,6,12.62-30.67-4.05-51.67-13.48C483.54,525.37,482.69,520,486.21,510.4Z" transform="translate(-131.42 -69.45)"/>
          <path class="cls-13" d="M529.19,526.23c-1.12-.58-2.39-1.34-3.74-2.22-4.45,2.72-5.91,8.65-5.91,8.65a280.8,280.8,0,0,1-36-10.68,16.9,16.9,0,0,0,0,3.39c21,9.43,51.67,13.48,51.67,13.48S536.69,530.08,529.19,526.23Z" transform="translate(-131.42 -69.45)"/>
        </g>
        <g>
          <path class="cls-8" d="M462.1,505s5.07,8.11,10.11,15.07,18.65,17.42,16.43,19.73-42.86-13.71-47.6-19c-2-2.3,3.81-17.89,3.81-17.89Z" transform="translate(-131.42 -69.45)"/>
          <path class="cls-12" d="M443.53,506.61l17.13,10.07s-1.26-8,4-7.73c0,0,12.63,13.88,19.6,18.63s4.44,13.27,4.44,13.27-29.95-7.78-49.63-19.71C439.05,521.14,438.85,515.72,443.53,506.61Z" transform="translate(-131.42 -69.45)"/>
          <path class="cls-13" d="M484.24,527.58a41.62,41.62,0,0,1-3.43-2.66c-4.76,2.15-6.93,7.86-6.93,7.86a280.07,280.07,0,0,1-34.44-15,16.57,16.57,0,0,0-.39,3.37c19.68,11.93,49.63,19.71,49.63,19.71S491.21,532.33,484.24,527.58Z" transform="translate(-131.42 -69.45)"/>
        </g>
        <rect class="cls-14" x="417.14" y="279.09" width="55.42" height="4.4" rx="2.2" transform="translate(-200.03 327.49) rotate(-45)"/>
        <path class="cls-8" d="M457.56,272.11s-.33-1-2.49-.23S439.22,288,439.22,288l-7.11,4.07s6.54-8.19,7.87-11.73a6.69,6.69,0,0,0-.5-6l-5.94,6s-8.07,7.08-9.14,9.46-2.92,15.39-2.92,15.39L431.69,312s19.66-11.49,20.29-14,3.14-9.52,3.14-9.52,1.33-3.95,1.8-5.72-.56-7.51-.56-7.51Z" transform="translate(-131.42 -69.45)"/>
        <path class="cls-8" d="M335.7,277.52s13.84,6.17,24.78,27.69S380,342.15,380,342.15l41.53-36.94,14.29,4.37s-36.92,61-59.95,64.92c0,0-23.58-15.76-46.59-57.2C329.23,317.3,328.86,293.35,335.7,277.52Z" transform="translate(-131.42 -69.45)"/>
      </g>
      <g>
        <path class="cls-15" d="M397.31,502.56c-9.64-17.61-9-92.31-9-92.31H371.58s.65,74.7-9,92.31-44.35,30.08-44.35,38.31H441.67C441.67,532.64,407,520.18,397.31,502.56Z" transform="translate(-131.42 -69.45)"/>
        <path class="cls-17" d="M307.14,279.94C278.21,303.09,296,433.75,340.46,433.75H437.6c27.36,0,34.21-53.5,26-63.93s-74.88,4.7-88.56-11.38C360.63,341.51,337.76,255.44,307.14,279.94Z" transform="translate(-131.42 -69.45)"/>
      </g>
      <path class="cls-12" d="M375.82,423.38c21.72-2.54,13-39.23,18.13-59.82s14.76-47,14.76-47c-1.24-1.54-2.45-3.08-3.6-4.63-17.14-23.14-46.89-41.15-46.89-41.15l-22.33-14.46s-24,10.18-36.1,26.9-20.68,109.28-20.68,109.28,14.17,2.14,40.28,15.72C351.82,425.08,375.82,423.38,375.82,423.38Z" transform="translate(-131.42 -69.45)"/>
      <path class="cls-30" d="M375,195.14c1.61,6.31-21.93,18-21.93,18s-2.84,14.51-8.64,20.92c0,0,4.45,19.33-2.92,25.07s-15.72,4.73-25,14.4-13.27,25.1-13.27,25.1-16-15.09-14.7-30.53,16-25.63,22.7-37c6.48-11.07,1.47-35.29,11.11-44.13S373.37,188.82,375,195.14Z" transform="translate(-131.42 -69.45)"/>
      <path class="cls-8" d="M349.61,225.85s-6.1-14.14-10.6-7.47,8.29,17.92,8.29,17.92Z" transform="translate(-131.42 -69.45)"/>
    </g>
    <g>
      <g>
        <g>
          <path class="cls-31" d="M568.65,88v40.34h21.86V88a6.28,6.28,0,0,0-6.28-6.28h-9.3A6.28,6.28,0,0,0,568.65,88Z" transform="translate(-131.42 -69.45)"/>
          <path class="cls-32" d="M584.23,81.75h-6.36A6.28,6.28,0,0,1,584.15,88v40.34h6.36V88A6.28,6.28,0,0,0,584.23,81.75Z" transform="translate(-131.42 -69.45)"/>
          <rect class="cls-12" x="443.59" width="9.15" height="12.3"/>
          <rect class="cls-13" x="439.59" y="22.71" width="17.14" height="27.43"/>
        </g>
        <g>
          <path class="cls-10" d="M592.25,102.24v26.13h32.66V102.24a9.39,9.39,0,0,0-9.38-9.39H601.64A9.39,9.39,0,0,0,592.25,102.24Z" transform="translate(-131.42 -69.45)"/>
          <path class="cls-33" d="M615.53,92.85h-8.1a9.39,9.39,0,0,1,9.38,9.39v26.13h8.1V102.24A9.39,9.39,0,0,0,615.53,92.85Z" transform="translate(-131.42 -69.45)"/>
          <rect class="cls-12" x="470.64" y="11.11" width="13.05" height="12.3"/>
          <rect class="cls-13" x="464.36" y="32.14" width="25.61" height="20.49"/>
        </g>
        <g>
          <rect class="cls-12" x="499.45" y="51.33" width="13.93" height="7.59"/>
          <polygon class="cls-22" points="495.9 11.11 499.45 51.33 513.38 51.33 516.92 11.11 495.9 11.11"/>
          <polygon class="cls-34" points="511.97 11.11 510.1 51.33 513.38 51.33 516.92 11.11 511.97 11.11"/>
          <rect class="cls-34" x="495.9" y="7.96" width="21.02" height="3.14"/>
          <rect class="cls-13" x="503" y="18.86" width="6.84" height="24.72"/>
        </g>
        <g>
          <g>
            <rect class="cls-15" x="432.95" y="62.48" width="8.57" height="32.52"/>
            <rect class="cls-15" x="512.64" y="62.48" width="8.57" height="32.52"/>
          </g>
          <g>
            <rect class="cls-16" x="432.95" y="62.48" width="8.57" height="19.34"/>
            <rect class="cls-16" x="512.64" y="62.48" width="8.57" height="19.34"/>
          </g>
          <rect class="cls-2" x="416.99" y="58.92" width="120.17" height="18.06"/>
        </g>
      </g>
      <g>
        <g>
          <g>
            <rect class="cls-15" x="432.95" y="156.68" width="8.57" height="32.52"/>
            <rect class="cls-15" x="512.64" y="156.68" width="8.57" height="32.52"/>
          </g>
          <g>
            <rect class="cls-16" x="432.95" y="156.68" width="8.57" height="19.34"/>
            <rect class="cls-16" x="512.64" y="156.68" width="8.57" height="19.34"/>
          </g>
          <rect class="cls-2" x="416.99" y="153.11" width="120.17" height="18.06"/>
        </g>
        <g>
          <path class="cls-31" d="M561.71,207.46v11.11a4,4,0,0,0,4,4h20.93a4,4,0,0,0,4-4V207.46Z" transform="translate(-131.42 -69.45)"/>
          <path class="cls-32" d="M590.64,207.46v-3.55a4,4,0,0,0-4-4H565.71a4,4,0,0,0-4,4v3.55Z" transform="translate(-131.42 -69.45)"/>
          <rect class="cls-13" x="432.35" y="139.94" width="24.8" height="7.88"/>
        </g>
        <g>
          <path class="cls-22" d="M582.5,211.71v8a2.87,2.87,0,0,0,2.87,2.88h15a2.87,2.87,0,0,0,2.87-2.88v-8Z" transform="translate(-131.42 -69.45)"/>
          <path class="cls-12" d="M603.27,211.71v-2.55a2.87,2.87,0,0,0-2.87-2.87h-15a2.87,2.87,0,0,0-2.87,2.87v2.55Z" transform="translate(-131.42 -69.45)"/>
          <rect class="cls-13" x="452.56" y="143.65" width="17.81" height="5.66"/>
        </g>
        <g>
          <path class="cls-10" d="M605.42,207.46v11.11a4,4,0,0,0,4,4h20.93a4,4,0,0,0,4-4V207.46Z" transform="translate(-131.42 -69.45)"/>
          <path class="cls-12" d="M634.35,207.46v-3.55a4,4,0,0,0-4-4H609.42a4,4,0,0,0-4,4v3.55Z" transform="translate(-131.42 -69.45)"/>
          <rect class="cls-13" x="476.07" y="139.94" width="24.8" height="7.87"/>
        </g>
        <g>
          <rect class="cls-12" x="501.23" y="148.56" width="8.35" height="4.55"/>
          <polygon class="cls-10" points="499.11 124.46 501.23 148.56 509.58 148.56 511.71 124.46 499.11 124.46"/>
          <polygon class="cls-33" points="508.74 124.46 507.61 148.56 509.58 148.56 511.71 124.46 508.74 124.46"/>
          <rect class="cls-33" x="499.11" y="122.57" width="12.6" height="1.88"/>
          <rect class="cls-13" x="503.36" y="129.1" width="4.1" height="14.81"/>
        </g>
        <g>
          <rect class="cls-12" x="515.7" y="148.56" width="8.35" height="4.55"/>
          <polygon class="cls-31" points="513.57 124.46 515.7 148.56 524.05 148.56 526.17 124.46 513.57 124.46"/>
          <polygon class="cls-32" points="523.21 124.46 522.08 148.56 524.05 148.56 526.17 124.46 523.21 124.46"/>
          <rect class="cls-32" x="513.57" y="122.57" width="12.6" height="1.88"/>
          <rect class="cls-13" x="517.82" y="129.1" width="4.1" height="14.81"/>
        </g>
      </g>
      <g>
        <g>
          <g>
            <rect class="cls-15" x="432.95" y="250.87" width="8.57" height="32.52"/>
            <rect class="cls-15" x="512.64" y="250.87" width="8.57" height="32.52"/>
          </g>
          <g>
            <rect class="cls-16" x="432.95" y="250.87" width="8.57" height="19.34"/>
            <rect class="cls-16" x="512.64" y="250.87" width="8.57" height="19.34"/>
          </g>
          <rect class="cls-2" x="416.99" y="247.31" width="120.17" height="18.06"/>
        </g>
        <g>
          <rect class="cls-10" x="604.68" y="287.5" width="54.53" height="2.02" rx="1.01" transform="translate(81.05 772.8) rotate(-77.39)"/>
          <path class="cls-10" d="M633.71,286.46l.13-.55,5.84,1.31a.33.33,0,0,0,.39-.25h0a.32.32,0,0,0-.25-.39L634,285.27l.12-.55,5.84,1.31a.32.32,0,0,0,.39-.25h0a.32.32,0,0,0-.25-.39l-5.84-1.31.13-.55,5.84,1.31a.33.33,0,0,0,.39-.25h0a.32.32,0,0,0-.25-.39l-5.84-1.31.12-.54,5.84,1.3a.32.32,0,0,0,.39-.25h0a.33.33,0,0,0-.24-.39l-5.84-1.31.12-.54,5.84,1.3a.32.32,0,0,0,.39-.25h0a.33.33,0,0,0-.25-.39l-5.84-1.3.12-.55,5.84,1.3a.33.33,0,0,0,.4-.24h0a.34.34,0,0,0-.25-.4l-5.84-1.3.12-.55,5.84,1.31a.33.33,0,0,0,.39-.25h0a.32.32,0,0,0-.25-.39l-5.84-1.31.13-.55,5.84,1.31a.33.33,0,0,0,.39-.25h0a.32.32,0,0,0-.25-.39L635.84,277l.12-.55,5.84,1.31a.32.32,0,0,0,.39-.25h0a.32.32,0,0,0-.25-.39l-5.84-1.31.13-.54,5.84,1.3a.33.33,0,0,0,.39-.25h0a.33.33,0,0,0-.25-.39l-5.84-1.31.12-.54,5.84,1.3a.32.32,0,0,0,.39-.25h0a.33.33,0,0,0-.24-.39l-5.84-1.3.12-.55,5.84,1.3a.32.32,0,0,0,.39-.24h0a.33.33,0,0,0-.25-.4l-5.84-1.3.12-.55,5.84,1.31a.34.34,0,0,0,.4-.25h0a.33.33,0,0,0-.25-.39L637.17,271l.12-.55,5.84,1.31a.32.32,0,0,0,.39-.25h0a.32.32,0,0,0-.25-.39l-5.84-1.31.13-.55,5.84,1.31a.33.33,0,0,0,.39-.25h0a.32.32,0,0,0-.25-.39l-5.84-1.31.12-.55,5.84,1.31a.32.32,0,0,0,.39-.25h0a.32.32,0,0,0-.24-.39L638,267.44l.12-.54,5.84,1.3a.33.33,0,0,0,.39-.25h0a.33.33,0,0,0-.25-.39l-5.84-1.3.12-.55,5.84,1.3a.33.33,0,0,0,.4-.24h0a.34.34,0,0,0-.25-.39l-5.84-1.3.12-.55,5.84,1.31a.33.33,0,0,0,.39-.25h0a.33.33,0,0,0-.25-.4l-5.84-1.3.13-.55,5.84,1.31a.33.33,0,0,0,.39-.25h0a.32.32,0,0,0-.25-.39L639,262.69l.12-.55,5.84,1.31a.32.32,0,0,0,.39-.25h0a.32.32,0,0,0-.25-.39l-5.84-1.31.13-.55,5.84,1.31a.33.33,0,0,0,.39-.25h0a.32.32,0,0,0-.25-.39l-5.84-1.31.12-.54,5.84,1.3a.32.32,0,0,0,.39-.25h0a.33.33,0,0,0-.24-.39l-5.84-1.3.12-.55,5.84,1.3a.32.32,0,0,0,.39-.24h0a.33.33,0,0,0-.25-.39l-5.84-1.3.12-.55,5.84,1.31a.34.34,0,0,0,.4-.25h0a.34.34,0,0,0-.25-.4l-5.84-1.3.12-.55,5.84,1.31a.32.32,0,0,0,.39-.25h0a.32.32,0,0,0-.25-.39l-5.84-1.31.13-.55,5.84,1.31a.33.33,0,0,0,.39-.25h0a.32.32,0,0,0-.25-.39l-5.84-1.31.12-.55,5.84,1.31a.32.32,0,0,0,.39-.25h0a1,1,0,0,0-.72-1.14l-5-1.12a2.51,2.51,0,0,0-3,1.9l-7.31,32.69,7.45,1.67a1,1,0,0,0,1.14-.72h0a.33.33,0,0,0-.25-.4Z" transform="translate(-131.42 -69.45)"/>
        </g>
        <g>
          <g>
            <path class="cls-12" d="M629.22,261.41l-16.64,2.93a.37.37,0,1,1-.13-.73l16.64-2.94a.38.38,0,1,1,.13.74Z" transform="translate(-131.42 -69.45)"/>
            <path class="cls-12" d="M629.55,263.27,612.9,266.2a.37.37,0,0,1-.43-.3.38.38,0,0,1,.3-.44l16.65-2.93a.37.37,0,0,1,.43.3A.38.38,0,0,1,629.55,263.27Z" transform="translate(-131.42 -69.45)"/>
            <path class="cls-12" d="M629.88,265.12l-16.65,2.94a.37.37,0,0,1-.43-.31.37.37,0,0,1,.3-.43l16.65-2.94a.38.38,0,0,1,.43.31A.37.37,0,0,1,629.88,265.12Z" transform="translate(-131.42 -69.45)"/>
            <path class="cls-12" d="M630.2,267l-16.64,2.93a.38.38,0,0,1-.44-.3.38.38,0,0,1,.31-.44l16.64-2.93a.38.38,0,0,1,.44.3A.38.38,0,0,1,630.2,267Z" transform="translate(-131.42 -69.45)"/>
            <path class="cls-12" d="M630.53,268.83l-16.64,2.94a.38.38,0,0,1-.44-.31.37.37,0,0,1,.31-.43l16.64-2.94a.39.39,0,0,1,.44.31A.38.38,0,0,1,630.53,268.83Z" transform="translate(-131.42 -69.45)"/>
            <path class="cls-12" d="M630.86,270.69l-16.65,2.93a.37.37,0,0,1-.43-.3.38.38,0,0,1,.3-.44L630.73,270a.37.37,0,0,1,.43.3A.38.38,0,0,1,630.86,270.69Z" transform="translate(-131.42 -69.45)"/>
            <path class="cls-12" d="M631.19,272.54l-16.65,2.94a.37.37,0,0,1-.43-.3.38.38,0,0,1,.3-.44l16.65-2.93a.37.37,0,0,1,.43.3A.37.37,0,0,1,631.19,272.54Z" transform="translate(-131.42 -69.45)"/>
            <path class="cls-12" d="M631.51,274.4l-16.64,2.93a.37.37,0,1,1-.13-.73l16.64-2.94a.38.38,0,1,1,.13.74Z" transform="translate(-131.42 -69.45)"/>
            <path class="cls-12" d="M631.84,276.26l-16.65,2.93a.37.37,0,0,1-.43-.3.38.38,0,0,1,.3-.44l16.65-2.93a.37.37,0,0,1,.43.3A.38.38,0,0,1,631.84,276.26Z" transform="translate(-131.42 -69.45)"/>
            <path class="cls-12" d="M632.17,278.11l-16.65,2.94a.37.37,0,0,1-.43-.31.37.37,0,0,1,.3-.43L632,277.37a.37.37,0,0,1,.43.31A.37.37,0,0,1,632.17,278.11Z" transform="translate(-131.42 -69.45)"/>
            <path class="cls-12" d="M632.49,280l-16.64,2.93a.38.38,0,1,1-.13-.74l16.64-2.93a.38.38,0,0,1,.44.3A.38.38,0,0,1,632.49,280Z" transform="translate(-131.42 -69.45)"/>
            <path class="cls-12" d="M632.82,281.82l-16.64,2.94a.38.38,0,0,1-.44-.31.38.38,0,0,1,.31-.43l16.64-2.94a.38.38,0,0,1,.44.31A.37.37,0,0,1,632.82,281.82Z" transform="translate(-131.42 -69.45)"/>
            <path class="cls-12" d="M633.15,283.68l-16.65,2.93a.37.37,0,0,1-.43-.3.38.38,0,0,1,.3-.44L633,282.94a.37.37,0,0,1,.43.3A.38.38,0,0,1,633.15,283.68Z" transform="translate(-131.42 -69.45)"/>
            <path class="cls-12" d="M633.48,285.53l-16.65,2.94a.37.37,0,0,1-.43-.3.38.38,0,0,1,.3-.44l16.65-2.93a.37.37,0,0,1,.43.3A.37.37,0,0,1,633.48,285.53Z" transform="translate(-131.42 -69.45)"/>
          </g>
          <rect class="cls-12" x="624.84" y="280.9" width="3.21" height="26.89" transform="translate(-173.01 43.8) rotate(-10)"/>
          <rect class="cls-31" x="617.07" y="259.1" width="11.79" height="30.93" rx="1" transform="translate(-169.63 42.9) rotate(-10)"/>
          <path class="cls-32" d="M622.83,258.89l5.37,30.46,2.27-.4a1,1,0,0,0,.81-1.16l-5-28.49a1,1,0,0,0-1.16-.81Z" transform="translate(-131.42 -69.45)"/>
          <path class="cls-31" d="M624.26,295.23l2.54,17.64a2.88,2.88,0,0,0,3.34,2.42h0a2.87,2.87,0,0,0,2.31-3.41l-3.64-17.45a1,1,0,0,0-1.16-.78l-2.57.45A1,1,0,0,0,624.26,295.23Z" transform="translate(-131.42 -69.45)"/>
          <g>
            <path class="cls-12" d="M618.35,263.33l-1.89.33a.38.38,0,0,1-.14-.74l1.9-.33a.37.37,0,0,1,.43.3A.38.38,0,0,1,618.35,263.33Z" transform="translate(-131.42 -69.45)"/>
            <path class="cls-12" d="M618.68,265.18l-1.9.34a.37.37,0,0,1-.43-.31.37.37,0,0,1,.3-.43l1.9-.34a.38.38,0,0,1,.43.31A.37.37,0,0,1,618.68,265.18Z" transform="translate(-131.42 -69.45)"/>
            <path class="cls-12" d="M619,267l-1.89.33a.37.37,0,0,1-.43-.3.38.38,0,0,1,.3-.44l1.89-.33a.38.38,0,0,1,.44.3A.38.38,0,0,1,619,267Z" transform="translate(-131.42 -69.45)"/>
            <path class="cls-12" d="M619.33,268.89l-1.89.34a.38.38,0,0,1-.44-.31.38.38,0,0,1,.31-.43l1.89-.33a.37.37,0,1,1,.13.73Z" transform="translate(-131.42 -69.45)"/>
            <path class="cls-12" d="M619.66,270.75l-1.9.33a.37.37,0,0,1-.43-.3.38.38,0,0,1,.3-.44l1.9-.33a.37.37,0,0,1,.43.3A.38.38,0,0,1,619.66,270.75Z" transform="translate(-131.42 -69.45)"/>
            <path class="cls-12" d="M620,272.61l-1.9.33a.37.37,0,0,1-.43-.3.38.38,0,0,1,.3-.44l1.89-.33a.38.38,0,0,1,.44.3A.38.38,0,0,1,620,272.61Z" transform="translate(-131.42 -69.45)"/>
            <path class="cls-12" d="M620.31,274.46l-1.89.34a.38.38,0,0,1-.44-.31.37.37,0,0,1,.31-.43l1.89-.34a.38.38,0,0,1,.44.31A.37.37,0,0,1,620.31,274.46Z" transform="translate(-131.42 -69.45)"/>
            <path class="cls-12" d="M620.64,276.32l-1.89.33a.38.38,0,0,1-.44-.3.38.38,0,0,1,.31-.44l1.89-.33a.37.37,0,0,1,.43.3A.38.38,0,0,1,620.64,276.32Z" transform="translate(-131.42 -69.45)"/>
            <path class="cls-12" d="M621,278.17l-1.9.34a.37.37,0,0,1-.43-.31.37.37,0,0,1,.3-.43l1.9-.34a.37.37,0,0,1,.43.31A.37.37,0,0,1,621,278.17Z" transform="translate(-131.42 -69.45)"/>
            <path class="cls-12" d="M621.29,280l-1.89.33a.37.37,0,0,1-.43-.3.38.38,0,0,1,.3-.44l1.89-.33a.38.38,0,0,1,.44.3A.38.38,0,0,1,621.29,280Z" transform="translate(-131.42 -69.45)"/>
            <path class="cls-12" d="M621.62,281.88l-1.89.34a.38.38,0,0,1-.44-.31.38.38,0,0,1,.31-.43l1.89-.33a.38.38,0,0,1,.44.3A.37.37,0,0,1,621.62,281.88Z" transform="translate(-131.42 -69.45)"/>
            <path class="cls-12" d="M622,283.74l-1.9.33a.37.37,0,0,1-.43-.3.37.37,0,0,1,.3-.43l1.9-.34a.38.38,0,0,1,.13.74Z" transform="translate(-131.42 -69.45)"/>
            <path class="cls-12" d="M622.28,285.6l-1.9.33a.37.37,0,0,1-.43-.3.38.38,0,0,1,.3-.44l1.9-.33a.37.37,0,0,1,.43.3A.38.38,0,0,1,622.28,285.6Z" transform="translate(-131.42 -69.45)"/>
            <path class="cls-12" d="M622.6,287.45l-1.89.34a.39.39,0,0,1-.44-.31.37.37,0,0,1,.31-.43l1.89-.34a.38.38,0,0,1,.44.31A.37.37,0,0,1,622.6,287.45Z" transform="translate(-131.42 -69.45)"/>
          </g>
          <g>
            <path class="cls-12" d="M625.34,262.09l-1.89.34a.37.37,0,0,1-.43-.31.37.37,0,0,1,.3-.43l1.89-.34a.39.39,0,0,1,.44.31A.37.37,0,0,1,625.34,262.09Z" transform="translate(-131.42 -69.45)"/>
            <path class="cls-12" d="M625.67,264l-1.89.33a.38.38,0,0,1-.44-.3.39.39,0,0,1,.31-.44l1.89-.33a.38.38,0,1,1,.13.74Z" transform="translate(-131.42 -69.45)"/>
            <path class="cls-12" d="M626,265.8l-1.9.34a.38.38,0,0,1-.43-.31.37.37,0,0,1,.3-.43l1.9-.33a.37.37,0,0,1,.13.73Z" transform="translate(-131.42 -69.45)"/>
            <path class="cls-12" d="M626.33,267.66l-1.9.33a.37.37,0,1,1-.13-.73l1.9-.34a.38.38,0,0,1,.43.31A.37.37,0,0,1,626.33,267.66Z" transform="translate(-131.42 -69.45)"/>
            <path class="cls-12" d="M626.65,269.52l-1.89.33a.38.38,0,0,1-.44-.3.38.38,0,0,1,.31-.44l1.89-.33a.38.38,0,0,1,.44.3A.38.38,0,0,1,626.65,269.52Z" transform="translate(-131.42 -69.45)"/>
            <path class="cls-12" d="M627,271.37l-1.89.34a.38.38,0,0,1-.44-.31A.37.37,0,0,1,625,271l1.89-.34a.37.37,0,0,1,.43.31A.37.37,0,0,1,627,271.37Z" transform="translate(-131.42 -69.45)"/>
            <path class="cls-12" d="M627.31,273.23l-1.9.33a.37.37,0,0,1-.43-.3.38.38,0,0,1,.3-.44l1.9-.33a.37.37,0,0,1,.43.3A.38.38,0,0,1,627.31,273.23Z" transform="translate(-131.42 -69.45)"/>
            <path class="cls-12" d="M627.63,275.08l-1.89.34a.37.37,0,0,1-.43-.31.37.37,0,0,1,.3-.43l1.89-.34a.39.39,0,0,1,.44.31A.37.37,0,0,1,627.63,275.08Z" transform="translate(-131.42 -69.45)"/>
            <path class="cls-12" d="M628,276.94l-1.89.33a.38.38,0,0,1-.44-.3.39.39,0,0,1,.31-.44l1.89-.33a.38.38,0,1,1,.13.74Z" transform="translate(-131.42 -69.45)"/>
            <path class="cls-12" d="M628.29,278.8l-1.9.33a.37.37,0,0,1-.43-.3.38.38,0,0,1,.3-.44l1.9-.33a.37.37,0,0,1,.43.3A.38.38,0,0,1,628.29,278.8Z" transform="translate(-131.42 -69.45)"/>
            <path class="cls-12" d="M628.62,280.65l-1.9.33a.37.37,0,0,1-.13-.73l1.9-.34a.38.38,0,0,1,.43.31A.37.37,0,0,1,628.62,280.65Z" transform="translate(-131.42 -69.45)"/>
            <path class="cls-12" d="M628.94,282.51l-1.89.33a.38.38,0,0,1-.44-.3.39.39,0,0,1,.31-.44l1.89-.33a.38.38,0,0,1,.44.3A.38.38,0,0,1,628.94,282.51Z" transform="translate(-131.42 -69.45)"/>
            <path class="cls-12" d="M629.27,284.36l-1.89.34a.38.38,0,0,1-.44-.31.37.37,0,0,1,.31-.43l1.89-.34a.37.37,0,0,1,.43.31A.37.37,0,0,1,629.27,284.36Z" transform="translate(-131.42 -69.45)"/>
            <path class="cls-12" d="M629.6,286.22l-1.9.33a.37.37,0,0,1-.43-.3.38.38,0,0,1,.3-.44l1.9-.33a.37.37,0,0,1,.43.3A.38.38,0,0,1,629.6,286.22Z" transform="translate(-131.42 -69.45)"/>
          </g>
          <g>
            <circle class="cls-12" cx="489.42" cy="193.1" r="0.38"/>
            <circle class="cls-12" cx="489.75" cy="194.95" r="0.38"/>
            <circle class="cls-12" cx="490.08" cy="196.8" r="0.38"/>
            <circle class="cls-12" cx="490.4" cy="198.65" r="0.38"/>
            <circle class="cls-12" cx="490.73" cy="200.5" r="0.38"/>
            <circle class="cls-12" cx="491.05" cy="202.35" r="0.38"/>
            <circle class="cls-12" cx="491.38" cy="204.19" r="0.38"/>
            <circle class="cls-12" cx="491.71" cy="206.04" r="0.38"/>
            <circle class="cls-12" cx="492.03" cy="207.89" r="0.38"/>
            <circle class="cls-12" cx="492.36" cy="209.74" r="0.38"/>
            <circle class="cls-12" cx="492.68" cy="211.59" r="0.38"/>
            <circle class="cls-12" cx="493.01" cy="213.44" r="0.38"/>
            <circle class="cls-12" cx="493.34" cy="215.29" r="0.38"/>
            <circle class="cls-12" cx="493.66" cy="217.14" r="0.38"/>
          </g>
        </g>
        <g>
          <path class="cls-15" d="M624.46,315.24h0A2.6,2.6,0,0,1,622.3,313l-1.77-22.25a1.7,1.7,0,0,1,.8-1.57c.45-.3.92-.71.92-1.19,0-1.65.16-2.88.16-2.88h2.05Z" transform="translate(-131.42 -69.45)"/>
          <path class="cls-26" d="M620.55,290.48h0l3.91,4.78V285.1h-2.05s-.14,1.23-.16,2.88c0,.48-.47.89-.92,1.19A1.69,1.69,0,0,0,620.55,290.48Z" transform="translate(-131.42 -69.45)"/>
          <path class="cls-15" d="M639,309.94h0a2.6,2.6,0,0,0,.21-3.11L626.3,288.64a1.7,1.7,0,0,0-1.62-.69,1.68,1.68,0,0,1-1.48-.32c-1.07-1.25-2-2.1-2-2.1l-1.57,1.32Z" transform="translate(-131.42 -69.45)"/>
          <path class="cls-25" d="M623.54,290a.79.79,0,1,0-1-.47A.79.79,0,0,0,623.54,290Z" transform="translate(-131.42 -69.45)"/>
          <path class="cls-22" d="M615.48,284.73h0a3.21,3.21,0,0,1,.73-.17,1.78,1.78,0,0,1,1.49.63l1.76,2,2.18-1.83-2.41-2.81a1.74,1.74,0,0,1-.4-1.58h0a6.16,6.16,0,0,0-.17-3.69,5.84,5.84,0,0,0-6-3.93,2,2,0,0,1-1.86-.84,8,8,0,0,0-3.13-2.68,1.83,1.83,0,0,0,.53,2.18,7,7,0,0,1,.87.85,2,2,0,0,1,0,2.49,6,6,0,0,0-.86,5.73A5.76,5.76,0,0,0,615.48,284.73Zm-3.5-9.61a4.34,4.34,0,1,1-2.26,5.42A4.17,4.17,0,0,1,612,275.12Z" transform="translate(-131.42 -69.45)"/>
          <g>
            <path class="cls-22" d="M619.59,274s-1.92.81-1.86,1.44c.07.85,2,1.44,2,1.44A7.18,7.18,0,0,1,619.59,274Z" transform="translate(-131.42 -69.45)"/>
            <path class="cls-22" d="M624.92,285.23l0-2.56a2,2,0,0,1,1-1.75l.39-.17h0a5.92,5.92,0,1,0-7.25-3.65,6.09,6.09,0,0,0,2.17,2.88h0a1.93,1.93,0,0,1,.75,1.6l0,3.64Zm-2-14.09a4.34,4.34,0,1,1-2.26,5.42A4.17,4.17,0,0,1,622.93,271.14Z" transform="translate(-131.42 -69.45)"/>
          </g>
        </g>
        <g>
          <path class="cls-12" d="M633.84,312.76V280.37H607.49v32.39a4,4,0,0,0,4,4h18.35A4,4,0,0,0,633.84,312.76Z" transform="translate(-131.42 -69.45)"/>
          <path class="cls-7" d="M640.19,316.45A4,4,0,0,0,642,315,4,4,0,0,1,640.19,316.45Z" transform="translate(-131.42 -69.45)"/>
          <path class="cls-7" d="M638.63,316.76a4.06,4.06,0,0,0,1.56-.31,4.06,4.06,0,0,1-1.56.31Z" transform="translate(-131.42 -69.45)"/>
          <path class="cls-7" d="M642.63,280.37v32.39A4,4,0,0,1,642,315a4,4,0,0,0,.68-2.24V280.37Z" transform="translate(-131.42 -69.45)"/>
          <path class="cls-7" d="M642.63,280.37h-8.79v32.39a4,4,0,0,1-4,4h8.79A4,4,0,0,0,642,315a4,4,0,0,0,.68-2.24Z" transform="translate(-131.42 -69.45)"/>
        </g>
      </g>
    </g>
  </g>
</svg>
