<svg xmlns="http://www.w3.org/2000/svg" viewBox="0 0 395.61 594.13">
  <defs>
    <style>
      .cls-1 {
        fill: #ebdbc1;
      }

      .cls-2 {
        fill: #11140c;
      }

      .cls-3 {
        fill: #b3b3b3;
      }

      .cls-4 {
        fill: #cfcece;
      }

      .cls-5 {
        fill: #4d6282;
      }

      .cls-6 {
        fill: #5f5557;
      }

      .cls-7 {
        fill: #472314;
      }

      .cls-8 {
        fill: #b0aeab;
      }

      .cls-9 {
        fill: #fcdac2;
      }

      .cls-10 {
        fill: #d5beae;
      }

      .cls-11 {
        fill: #716257;
      }

      .cls-12 {
        fill: #d4d0c9;
      }

      .cls-13 {
        fill: #bfbcb5;
      }

      .cls-14 {
        fill: #ffd68d;
      }

      .cls-15 {
        fill: #0a4773;
      }

      .cls-16 {
        fill: #f7f7f7;
      }

      .cls-17 {
        fill: #a68453;
      }
    </style>
  </defs>
  <g id="Layer_2" data-name="Layer 2">
    <path class="cls-1" d="M274.65,176.56s-4.47,6-3.73,10.94a34.78,34.78,0,0,0,3.73,10.2s1,1,0,4S269,217.59,273,222.81l3.93,5.22s-2.24,12.43-12.43,11.69-22.38,4.72-25.12-3a8.79,8.79,0,0,0-9.94-6.21s-9-10.5-8.21-21.78,8-3.34,8-3.34l2,5.72,1.74-11.19-2.49-15.66s1.74-4.23,2.74-4.48,15.89-.74,15.89-.74l16.43.25Z" transform="translate(-109.82 -171.26)"/>
    <path class="cls-1" d="M229.5,278.9l2-17.26h37.68l-3.16,4,3.16,16.11,4.89,20.42-22.29,13.23s-19.41-1.15-20.28-3.17-5.75-17.54-4.88-19S229.5,278.9,229.5,278.9Z" transform="translate(-109.82 -171.26)"/>
    <path class="cls-1" d="M130.75,282.77s5,.62,7.14,3.88,7.61,9.47,7.45,13.82-3.26,10.08-3.1,13.19.15,10.4.15,10.4,7.3,15.52,8.85,20.64S159.77,370,159.77,370l-18.62,12.58-5-2.64-1.86-6.06-.93-4s-1.4-14.59-1.24-25.61,1.55-14.43,0-20.48-5.59-9.16-7-18.47-1.71-12.73,0-15.21,4.81-3.42,5-4.66A17,17,0,0,1,130.75,282.77Z" transform="translate(-109.82 -171.26)"/>
    <path class="cls-1" d="M213.93,683.71a97.14,97.14,0,0,0,1.21,12.73c1.11,6.66,5.15,0,5.15,0l.61-3.64s.1-7.88,0-9.49S213.93,683.71,213.93,683.71Z" transform="translate(-109.82 -171.26)"/>
    <path class="cls-1" d="M265.94,678.06s1.41,9,2.22,11.51,4.74,1,5,.91a21.33,21.33,0,0,0,2.12-2.33V675.63Z" transform="translate(-109.82 -171.26)"/>
  </g>
  <g id="Layer_3" data-name="Layer 3">
    <path class="cls-2" d="M276.07,176.65a14.67,14.67,0,0,0-5,10.75s-12.58,2.52-18.65,0-11.09-6.86-14.64-6.18-6.75,2.18-4.35,5.72l2.41,3.55-1.61,23.68s2,12,9.5,16.7,13.38,6.07,20.25,4.92,13.15-9.38,13.15-9.38-1.71,21.74,0,27,3,7.66,1.15,9.38-4.46,9.72-24.37,7.21-24.37-2.63-24.48-6.52S228,234.76,228,234.76v-7.43s3.31-1.83,2.86-8.93S230.77,204.1,228,198s-7.67-15.67-5.38-19.1,7.09-7.44,10.64-7.67,20.36,2.18,25.62,2.29,11.9-.34,14.53,1.37Z" transform="translate(-109.82 -171.26)"/>
  </g>
  <g id="Layer_4" data-name="Layer 4">
    <path class="cls-3" d="M230.11,269.51s-.55,3.75-.33,3.92,8.51,4.86,13.26,6.3,6.91,2,6.91,2,6.68,12.26,7.18,13.09.72,1.22.72,1.22a64.92,64.92,0,0,0,3.81-8.51,31.68,31.68,0,0,0,1-7.46l-.16-.39a29.07,29.07,0,0,0,4.47-1.38l1.16-.61-.66-5a27.58,27.58,0,0,1,2.82,1.71l1.6,1.11s6.4,9.63,7.91,10.45l1.5.82a65.27,65.27,0,0,1,9.87,7.26c5.07,4.52,20.27,26.58,23.7,37.27s12.33,37.94,14,48.9S331,400.1,331,400.1s8.9,3.42,14.65,10-9.86,14.38-9.86,14.38l-8.63,6.44s-14.25-4.8-18.22-12.06l-4-7.26s-10-17-12.06-22.88l-2.05-5.89s-7.55,22.06-8.62,54l-1.07,32H207.84s1.06-15.46,5.06-28l4-12.53s1.06-5.33-2.4-19.45-16.52-48-16.52-48-4.8,23.18-18.66,39.71-16.25,22.38-28.51,9.06-15.19-32.52-15.19-32.52,19.45-9.32,20.25-11.72-.8-17.06,13.33-42.64,17.32-28.25,17.32-28.25l33.31-12.26s3.72-7.24,6.35-9.76A14.57,14.57,0,0,1,230.11,269.51Z" transform="translate(-109.82 -171.26)"/>
  </g>
  <g id="Layer_5" data-name="Layer 5">
    <path class="cls-4" d="M249.35,281.42s-10.16,16.65-12.27,19.8-3.5,5.61-3.5,5.61S229,299.47,225,293.16s-5.6-9.11-5.08-10.69,5.79-10,7-11a17.79,17.79,0,0,1,2.45-1.76s-4.65,2.46,5.21,6.31S249.35,281.42,249.35,281.42Z" transform="translate(-109.82 -171.26)"/>
    <path class="cls-4" d="M263.05,280.13s4.84,9.07,5.93,16a77.05,77.05,0,0,1,1.09,8.34s8.48-14.58,9.08-16.17l.59-1.6s-1.57-5.56-4.84-8.59a28.64,28.64,0,0,0-4.83-3.87s1.45,1.09-.36,2.3S263.05,280.13,263.05,280.13Z" transform="translate(-109.82 -171.26)"/>
    <path class="cls-4" d="M132.56,365.19s-1.48,8.09,0,9.91a17.28,17.28,0,0,1,2,2.81s14.37-2.65,20-6.36l5.62-3.72s-1.65-5.45-3.14-7.6l-1.48-2.15s3.3-.49-5,3.14S132.56,365.19,132.56,365.19Z" transform="translate(-109.82 -171.26)"/>
  </g>
  <g id="Layer_7" data-name="Layer 7">
    <path class="cls-5" d="M237,536.62s-5.2,39.33-8,64.28-6.43,86.63-6.43,86.63H209s-9.34-78.21-4.9-95.51,5.82-19.13,5.82-19.13l.15-28.62Z" transform="translate(-109.82 -171.26)"/>
    <path class="cls-5" d="M251.4,542l8.11,32s-11.09,12.78-6,56.82,6,50.21,6,50.21h18.06s4-131.45,2.12-139S251.4,542,251.4,542Z" transform="translate(-109.82 -171.26)"/>
  </g>
  <g id="Layer_6" data-name="Layer 6">
    <path class="cls-6" d="M213.39,284.67s10.47,13.5,13.13,22.16a41.18,41.18,0,0,0,7.79,14.28s18.83,2.92,34.74,0L285,318.19s2.28-13,0-20.14-3.61-11.25-3.61-11.25l2.32,1.46s12,25.7,12,40-.35,48.18-4.87,60.39-7.47,49-7.47,56.18,1.62,24,1.62,24,4.88,75.65,2,78.9-13.78,5.19-32.38,4.87-49.44,3.31-50.74,0,0-42.89,0-42.89-.38-26.9,2.57-51.14,6.51-52.63,1.78-62.1l-4.73-9.46s13.78-19.51,17.53-34.3,10.37-17.15,5.58-31.93S209,286.28,209,286.28Z" transform="translate(-109.82 -171.26)"/>
  </g>
  <g id="Layer_8" data-name="Layer 8">
    <path class="cls-7" d="M214.12,692.78a56.2,56.2,0,0,0,5.84,0l.84-.2s5.07,4.86,5.07,9.93v5.67H205.81s-1.42-3.44,0-5.67S214.12,692.78,214.12,692.78Z" transform="translate(-109.82 -171.26)"/>
    <path class="cls-7" d="M267.42,687.53a7.37,7.37,0,0,0-2.84,6.26v8.11s5.47,1,7.09,1h1.62v-1.62s12.16,3.65,20.27,1.62,10.95-3.85,10.95-3.85.6-5.07-3.65-5.07-12,1.22-14.19-.4-8.51-6.89-9.52-7.3l-1-.4s-.4,1.06-3,1.64A16.11,16.11,0,0,1,267.42,687.53Z" transform="translate(-109.82 -171.26)"/>
  </g>
  <g id="Layer_9" data-name="Layer 9">
    <path class="cls-8" d="M125,238.48l.85,28.62-16.07-23.75s2.8,19.31,9.5,26.16,8.15,8.55,8.15,8.55v11s-3.28,1.94-2.55,6.94,5.11,8.89,5.84,2.68,0-4.27,0-4.27-.12,4.63-1.34,5.12-4.87-1.71-2.19-8.16,2.19-6,2.19-6l.12-3.53,3.54,2.84a19.3,19.3,0,0,0,0,4c.24,1.58,1.21,8.65,6.21,9s3.28-4.38,3.28-4.38A12.21,12.21,0,0,0,140.5,290c-1.34-1.46-2.92-2.92-2.92-2.92s4.38,5.36,3.9,6.82-6.46,3-6.94-2.8,1.08-6.42,1.08-6.42l-6.56-7.22s2.31-13.88.48-23.75S125,238.48,125,238.48Z" transform="translate(-109.82 -171.26)"/>
  </g>
  <g id="Layer_10" data-name="Layer 10">
    <path class="cls-9" d="M386.57,310.73s8.47,13.94,9.53,15.17.53,12.35,0,15a8.07,8.07,0,0,0,3.7,8.12l3,1.76L401.74,379l-18.87,2.29-24.35-5.64L352.87,367l-1.94-3.7s-7.23-7.41-6.7-14.82,4.23-6.36,4.23-6.36,3.36.71,5.83,7.41,6.52,5.83,6.52,5.83-9.17-10.94-10.05-17.12-.83-18.7-.83-18.7,5.77-3.88,6.65-3.88S379.51,313,379.51,313Z" transform="translate(-109.82 -171.26)"/>
    <path class="cls-9" d="M358.09,378.1S357,402,356.58,407.87s21.68,15.45,26,16,12.06-13.19,12.06-13.19l-5.47-7.92s-.37-13.57-.56-16.77-12.25-3.77-12.25-3.77Z" transform="translate(-109.82 -171.26)"/>
    <path class="cls-9" d="M438.84,726.84s-3.72,5.42-3.16,6.77,7.11,2.26,7.11,2.26-.68-5.53,0-7.9S438.84,726.84,438.84,726.84Z" transform="translate(-109.82 -171.26)"/>
    <path class="cls-9" d="M469.64,745.91s5.42,8,5.31,9.48,7-2.14,7-2.14-5.87-6.77-7.11-9S469.64,745.91,469.64,745.91Z" transform="translate(-109.82 -171.26)"/>
  </g>
  <g id="Layer_12" data-name="Layer 12">
    <path class="cls-10" d="M353.34,347.46s5.32,18.8,2.36,19a9.29,9.29,0,0,1-5.48-1.84l1.54,7.61s5.91,18.59,27.18,18.31,21.83-1.41,21.83-1.41l2-29.29s-2,4.64-11.83,4.22-18.87-.42-25.49-7-9.26-11.56-9.26-11.56l-2.82,2" transform="translate(-109.82 -171.26)"/>
  </g>
  <g id="Layer_11" data-name="Layer 11">
    <path class="cls-11" d="M389.65,316.11s1.72,1.72,1.72,2.34v.63s13.13-3.28,15.16-6.1,3.59-8.12-7.19-10.31-19.07-1.88-24.54,0a48.57,48.57,0,0,1-7.81,2.19s5.31-5.4-1.56-3.72-14.54,10-14.54,10,.53,1.4-.67.93-5.58-4.53-5.11-2.81,1.41,5.94.63,5.94H345s1.82,17.5,1.93,20.16,0,7.66,0,7.66a4.82,4.82,0,0,1,5.58,2.65c2,3.75,1.71,5.32,1.71,5.32l4.22-1.41s-5.93-9.38-6.25-18.44l-.31-9.06a107.06,107.06,0,0,0,21.41,0A36.91,36.91,0,0,0,389.65,316.11Z" transform="translate(-109.82 -171.26)"/>
  </g>
  <g id="Layer_18" data-name="Layer 18">
    <ellipse class="cls-12" cx="239.16" cy="548.76" rx="64.15" ry="19.64"/>
  </g>
  <g id="Layer_17" data-name="Layer 17">
    <path class="cls-13" d="M337.16,621.6l-2.23,85s-1.12,7.83,9.32,8.21l10.44.37s7.84.84,8.21-7,0-74.27,0-74.27Z" transform="translate(-109.82 -171.26)"/>
  </g>
  <g id="Layer_16" data-name="Layer 16">
    <path class="cls-14" d="M317.1,456.65s-29.62,7.18-36.89,18.67S267.62,492,273.66,517s21.06,92.63,59,111.65,56.24,25.13,82.45,6.11,24.13-31.6,24.13-31.6l-6.18-40.92s-59.59-57.09-60.67-60S317.1,456.65,317.1,456.65Z" transform="translate(-109.82 -171.26)"/>
  </g>
  <g id="Layer_14" data-name="Layer 14">
    <path class="cls-15" d="M390.33,594.61l39.17,39.56,50.24,112.36-10.1,3.1S430.69,724.17,420.4,691s-8.7-42.23-8.7-42.23-74-18.2-78.73-58.15,45.89-17.81,45.89-17.81Z" transform="translate(-109.82 -171.26)"/>
    <path class="cls-15" d="M430.64,585.07,475.79,608s-.83,40.85-11.35,73-19.15,50.2-19.15,50.2l-7.8-2.22s1.79-66.53,8.17-82.31,7.55-17.27,7.55-17.27-38-5.26-49.61-10.14S375,591.08,376.89,590s38-12,38-12Z" transform="translate(-109.82 -171.26)"/>
  </g>
  <g id="Layer_13" data-name="Layer 13">
    <path class="cls-16" d="M356.2,397.93l15.05,6.59-4.16,10.17s6.88,2.15,11.61,1.15a68.78,68.78,0,0,0,9.74-3l-4-8,4-4.45s15.62,6.6,21.5,13,13.76,18.92,16.62,25.94c0,0,18.13,99.21,23.24,108.71s14.62,40.43,11.21,41.64-75.95,20-110.79,20.11-36.31,6-42.64-18.89-26.17-74.77-8.15-123.23,50.79-62.1,50.79-62.1Z" transform="translate(-109.82 -171.26)"/>
  </g>
  <g id="Layer_15" data-name="Layer 15">
    <path class="cls-17" d="M471.32,751.5s3.65,3.14,6.49,1.68a35.26,35.26,0,0,0,3.12-1.68,12.32,12.32,0,0,0,8.17,4.24c5.4.57,13-.63,14.65,2.61l1.68,3.24s-1.32,4.44-12.13,3.72a102.08,102.08,0,0,1-16.09-2l-.12,2.12-8-.56a33.49,33.49,0,0,1,.6-6.38A35.56,35.56,0,0,1,471.32,751.5Z" transform="translate(-109.82 -171.26)"/>
    <path class="cls-17" d="M442.86,734.69l5.41,12.61s6-.36,8.88,1.68,3.12,3.12,3.12,3.12v2l-14.53,1-11.52-11.05-1.32.84-5.53-6.61s3.24-4.2,5.89-6l2.64-1.8-.28,2.64a3.63,3.63,0,0,0,2.68,1.68A11.44,11.44,0,0,0,442.86,734.69Z" transform="translate(-109.82 -171.26)"/>
  </g>
</svg>
