<?xml version="1.0" encoding="UTF-8"?>
<svg xmlns="http://www.w3.org/2000/svg" xmlns:xlink="http://www.w3.org/1999/xlink" version="1.1" width="2652px" height="2971px" style="shape-rendering:geometricPrecision; text-rendering:geometricPrecision; image-rendering:optimizeQuality; fill-rule:evenodd; clip-rule:evenodd">
  <g>
    <path style="opacity:0.994" fill="#000000" d="M 359.5,-0.5 C 375.167,-0.5 390.833,-0.5 406.5,-0.5C 476.241,5.41838 523.408,41.085 548,106.5C 568.797,169.398 573.131,233.398 561,298.5C 549.966,351.266 534.3,402.599 514,452.5C 496.061,495.878 476.895,538.711 456.5,581C 475.912,665.483 497.746,749.316 522,832.5C 523.468,762.087 532.801,692.754 550,624.5C 561.134,579.376 580.134,538.043 607,500.5C 625.693,477.467 647.193,457.634 671.5,441C 729.324,405.962 785.324,408.628 839.5,449C 871.914,474.068 897.747,504.568 917,540.5C 936.921,586.552 935.921,632.219 914,677.5C 885.651,737.516 842.484,783.683 784.5,816C 709.071,856.7 629.071,884.7 544.5,900C 543.572,900.388 542.905,901.055 542.5,902C 590.085,1057.77 646.918,1209.94 713,1358.5C 711.061,1335.56 709.394,1312.56 708,1289.5C 704.642,1228.92 708.975,1168.92 721,1109.5C 735.209,1039.52 770.709,983.352 827.5,941C 866.445,915.562 907.778,910.895 951.5,927C 989.263,943.136 1022.1,966.302 1050,996.5C 1089.26,1042.13 1099.59,1093.8 1081,1151.5C 1060.47,1214.74 1023.64,1266.24 970.5,1306C 924.707,1340.25 875.374,1368.91 822.5,1392C 796.161,1403.34 769.494,1413.84 742.5,1423.5C 811.654,1571.88 891.488,1713.54 982,1848.5C 968.047,1799.73 958.047,1750.07 952,1699.5C 946.811,1654.4 947.477,1609.4 954,1564.5C 964.543,1507.9 990.377,1459.73 1031.5,1420C 1067.9,1388.82 1109.57,1378.82 1156.5,1390C 1193.59,1400.05 1227.26,1416.71 1257.5,1440C 1303.8,1479.57 1320.64,1529.4 1308,1589.5C 1297.92,1643.98 1275.25,1692.32 1240,1734.5C 1196.32,1784.2 1147.15,1827.36 1092.5,1864C 1069.84,1879.34 1046.5,1893.67 1022.5,1907C 1116.08,2039.14 1222.08,2161.31 1340.5,2273.5C 1329.26,2251.34 1318.09,2228.68 1307,2205.5C 1285.65,2158.42 1270.31,2109.42 1261,2058.5C 1246.14,1985.29 1259.14,1917.63 1300,1855.5C 1328.75,1815.54 1367.92,1795.21 1417.5,1794.5C 1457.57,1795.85 1495.57,1805.35 1531.5,1823C 1575.26,1846.63 1598.76,1883.47 1602,1933.5C 1605.35,1989.39 1595.35,2042.72 1572,2093.5C 1544.86,2147.48 1511.53,2197.14 1472,2242.5C 1447.56,2270.27 1421.73,2296.77 1394.5,2322C 1516.05,2429.95 1649.05,2521.28 1793.5,2596C 1751.42,2554.28 1715.25,2508.11 1685,2457.5C 1667.64,2427.76 1653.98,2396.43 1644,2363.5C 1627.64,2303.77 1632.31,2245.77 1658,2189.5C 1679.55,2150.62 1712.05,2126.12 1755.5,2116C 1792.42,2107.75 1829.42,2107.41 1866.5,2115C 1906.96,2124.79 1935.13,2148.96 1951,2187.5C 1974.84,2251.91 1978.84,2317.58 1963,2384.5C 1941.59,2469.97 1907.59,2549.97 1861,2624.5C 1859.46,2626.48 1858.96,2628.48 1859.5,2630.5C 2049.48,2719.92 2248.48,2780.09 2456.5,2811C 2521.21,2820.65 2586.21,2827.49 2651.5,2831.5C 2651.5,2835.5 2651.5,2839.5 2651.5,2843.5C 2650.82,2849.71 2649.99,2856.05 2649,2862.5C 2461.69,2850.03 2278.52,2815.53 2099.5,2759C 2012.69,2730.43 1928.03,2696.59 1845.5,2657.5C 1827.9,2706.37 1806.73,2753.7 1782,2799.5C 1763.34,2833.15 1741.01,2864.15 1715,2892.5C 1682.15,2927.35 1642.32,2950.52 1595.5,2962C 1580.83,2965.57 1566.17,2968.4 1551.5,2970.5C 1532.83,2970.5 1514.17,2970.5 1495.5,2970.5C 1434.03,2961.85 1382.86,2934.18 1342,2887.5C 1311.35,2851.89 1288.68,2811.55 1274,2766.5C 1256.47,2703.03 1276.3,2655.53 1333.5,2624C 1388.35,2596.83 1446.35,2585.16 1507.5,2589C 1554.76,2590.96 1601.76,2595.62 1648.5,2603C 1692.6,2610.13 1736.6,2617.46 1780.5,2625C 1633.79,2547.76 1498.29,2454.59 1374,2345.5C 1338.68,2396.84 1298.18,2444.01 1252.5,2487C 1223.61,2513.12 1191.61,2534.79 1156.5,2552C 1118.57,2568.71 1078.9,2575.38 1037.5,2572C 932.767,2564.57 860.6,2512.4 821,2415.5C 807.161,2380.8 799.661,2344.8 798.5,2307.5C 798.405,2239.1 831.738,2197.6 898.5,2183C 959.22,2171.03 1018.89,2175.03 1077.5,2195C 1125.27,2210.25 1171.93,2228.25 1217.5,2249C 1251.61,2264.73 1285.61,2280.39 1319.5,2296C 1200,2182.65 1093,2059.32 998.5,1926C 997.5,1925.33 996.5,1925.33 995.5,1926C 941.09,1976.56 880.423,2018.22 813.5,2051C 774.564,2069.48 733.564,2079.65 690.5,2081.5C 633.543,2080.1 581.543,2063.6 534.5,2032C 485.114,1993.43 455.614,1942.93 446,1880.5C 439.704,1843.1 440.037,1805.76 447,1768.5C 460.65,1708.52 498.15,1676.02 559.5,1671C 608.807,1668.33 656.14,1676.66 701.5,1696C 736.906,1711.86 770.573,1730.53 802.5,1752C 854.794,1786.65 905.128,1823.98 953.5,1864C 954.167,1864.67 954.833,1864.67 955.5,1864C 864.361,1728.29 784.028,1585.79 714.5,1436.5C 653.753,1474.37 589.086,1503.87 520.5,1525C 483.582,1535.82 445.916,1540.49 407.5,1539C 349.852,1533.02 298.518,1512.02 253.5,1476C 203.613,1430.36 179.28,1373.53 180.5,1305.5C 180.268,1270.56 185.768,1236.56 197,1203.5C 222.323,1137.73 270.156,1109.9 340.5,1120C 384.392,1125.96 425.059,1140.63 462.5,1164C 498.685,1188.11 532.685,1215.11 564.5,1245C 585.333,1265.83 606.167,1286.67 627,1307.5C 646,1328.5 665,1349.5 684,1370.5C 618.498,1220.19 561.331,1066.52 512.5,909.5C 442.272,941.186 368.939,962.019 292.5,972C 197.111,983.986 116.278,955.486 50,886.5C 21.0455,853.145 4.21212,814.478 -0.5,770.5C -0.5,755.167 -0.5,739.833 -0.5,724.5C 3.62433,685.018 14.4577,647.352 32,611.5C 63.2255,554.734 110.725,533.234 174.5,547C 230.496,560.322 279.163,586.656 320.5,626C 365.481,670.578 406.314,718.411 443,769.5C 459.432,793.547 475.932,816.88 492.5,839.5C 469.15,759.433 447.983,678.767 429,597.5C 363.63,528.094 309.963,450.427 268,364.5C 250.036,326.607 237.703,286.94 231,245.5C 224.66,198.708 226.993,152.375 238,106.5C 254.808,43.5041 295.308,7.83744 359.5,-0.5 Z"></path>
  </g>
</svg>
